# Blender 3.4.1
# www.blender.org
mtllib block_encoder_1_3.mtl
o Cylinder
v 0.000000 0.050000 -0.050000
v 0.025000 0.050000 -0.043301
v 0.043301 0.050000 -0.025000
v 0.050000 0.050000 0.000000
v 0.043301 0.050000 0.025000
v 0.025000 0.050000 0.043301
v 0.000000 0.050000 0.050000
v -0.025000 0.050000 0.043301
v -0.043301 0.050000 0.025000
v -0.050000 0.050000 0.000000
v -0.043301 0.050000 -0.025000
v -0.025000 0.050000 -0.043301
v 0.000000 0.005212 -0.050000
v 0.025000 0.005212 -0.043301
v 0.043301 0.005212 -0.025000
v 0.050000 0.005212 0.000000
v 0.043301 0.005212 0.025000
v 0.025000 0.005212 0.043301
v 0.000000 0.005212 0.050000
v -0.025000 0.005212 0.043301
v -0.043301 0.005212 0.025000
v -0.050000 0.005212 0.000000
v -0.043301 0.005212 -0.025000
v -0.025000 0.005212 -0.043301
v 0.028757 0.005051 0.107324
v 0.055555 0.005051 0.096224
v 0.078567 0.005051 0.078567
v 0.096224 0.005051 0.055555
v 0.000000 0.005051 -0.150000
v 0.038823 0.005051 -0.144889
v 0.075000 0.005051 -0.129904
v 0.106066 0.005051 -0.106066
v 0.129904 0.005051 -0.075000
v 0.144889 0.005051 -0.038823
v 0.150000 0.005051 0.000000
v 0.144889 0.005051 0.038823
v 0.129904 0.005051 0.075000
v 0.106066 0.005051 0.106066
v 0.075000 0.005051 0.129904
v 0.038823 0.005051 0.144889
v 0.000000 0.005051 0.150000
v -0.038823 0.005051 0.144889
v -0.075000 0.005051 0.129904
v -0.106066 0.005051 0.106066
v -0.129904 0.005051 0.075000
v -0.144889 0.005051 0.038823
v -0.150000 0.005051 0.000000
v -0.144889 0.005051 -0.038823
v -0.129904 0.005051 -0.075000
v -0.106066 0.005051 -0.106066
v -0.075000 0.005051 -0.129904
v -0.038823 0.005051 -0.144889
v 0.107324 0.005051 0.028757
v 0.111110 0.005051 0.000000
v 0.107324 0.005051 -0.028757
v 0.096224 0.005051 -0.055555
v 0.078567 0.005051 -0.078567
v 0.055555 0.005051 -0.096224
v 0.028757 0.005051 -0.107324
v 0.000000 0.005051 -0.111110
v 0.000000 0.005051 0.111110
v -0.028757 0.005051 0.107324
v -0.055555 0.005051 0.096224
v -0.078567 0.005051 0.078567
v -0.096224 0.005051 0.055555
v -0.107324 0.005051 0.028757
v -0.111110 0.005051 0.000000
v -0.107324 0.005051 -0.028757
v -0.096224 0.005051 -0.055555
v -0.078567 0.005051 -0.078567
v -0.055555 0.005051 -0.096224
v -0.028757 0.005051 -0.107324
v 0.034884 0.005051 0.060421
v 0.060421 0.005051 0.034884
v 0.069769 0.005051 -0.000000
v 0.060421 0.005051 -0.034884
v 0.034884 0.005051 -0.060421
v 0.000000 0.005051 -0.069769
v 0.000000 0.005051 0.069769
v -0.034884 0.005051 0.060421
v -0.060421 0.005051 0.034884
v -0.069769 0.005051 -0.000000
v -0.060421 0.005051 -0.034884
v -0.034884 0.005051 -0.060421
v 0.000000 -0.050000 -0.050000
v 0.025000 -0.050000 -0.043301
v 0.043301 -0.050000 -0.025000
v 0.050000 -0.050000 0.000000
v 0.043301 -0.050000 0.025000
v 0.025000 -0.050000 0.043301
v 0.000000 -0.050000 0.050000
v -0.025000 -0.050000 0.043301
v -0.043301 -0.050000 0.025000
v -0.050000 -0.050000 0.000000
v -0.043301 -0.050000 -0.025000
v -0.025000 -0.050000 -0.043301
v 0.000000 -0.005212 -0.050000
v 0.025000 -0.005212 -0.043301
v 0.043301 -0.005212 -0.025000
v 0.050000 -0.005212 0.000000
v 0.043301 -0.005212 0.025000
v 0.025000 -0.005212 0.043301
v 0.000000 -0.005212 0.050000
v -0.025000 -0.005212 0.043301
v -0.043301 -0.005212 0.025000
v -0.050000 -0.005212 0.000000
v -0.043301 -0.005212 -0.025000
v -0.025000 -0.005212 -0.043301
v 0.028757 -0.005051 0.107324
v 0.055555 -0.005051 0.096224
v 0.078567 -0.005051 0.078567
v 0.096224 -0.005051 0.055555
v 0.000000 -0.005051 -0.150000
v 0.038823 -0.005051 -0.144889
v 0.075000 -0.005051 -0.129904
v 0.106066 -0.005051 -0.106066
v 0.129904 -0.005051 -0.075000
v 0.144889 -0.005051 -0.038823
v 0.150000 -0.005051 0.000000
v 0.144889 -0.005051 0.038823
v 0.129904 -0.005051 0.075000
v 0.106066 -0.005051 0.106066
v 0.075000 -0.005051 0.129904
v 0.038823 -0.005051 0.144889
v 0.000000 -0.005051 0.150000
v -0.038823 -0.005051 0.144889
v -0.075000 -0.005051 0.129904
v -0.106066 -0.005051 0.106066
v -0.129904 -0.005051 0.075000
v -0.144889 -0.005051 0.038823
v -0.150000 -0.005051 0.000000
v -0.144889 -0.005051 -0.038823
v -0.129904 -0.005051 -0.075000
v -0.106066 -0.005051 -0.106066
v -0.075000 -0.005051 -0.129904
v -0.038823 -0.005051 -0.144889
v 0.107324 -0.005051 0.028757
v 0.111110 -0.005051 0.000000
v 0.107324 -0.005051 -0.028757
v 0.096224 -0.005051 -0.055555
v 0.078567 -0.005051 -0.078567
v 0.055555 -0.005051 -0.096224
v 0.028757 -0.005051 -0.107324
v 0.000000 -0.005051 -0.111110
v 0.000000 -0.005051 0.111110
v -0.028757 -0.005051 0.107324
v -0.055555 -0.005051 0.096224
v -0.078567 -0.005051 0.078567
v -0.096224 -0.005051 0.055555
v -0.107324 -0.005051 0.028757
v -0.111110 -0.005051 0.000000
v -0.107324 -0.005051 -0.028757
v -0.096224 -0.005051 -0.055555
v -0.078567 -0.005051 -0.078567
v -0.055555 -0.005051 -0.096224
v -0.028757 -0.005051 -0.107324
v 0.034884 -0.005051 0.060421
v 0.060421 -0.005051 0.034884
v 0.069769 -0.005051 -0.000000
v 0.060421 -0.005051 -0.034884
v 0.034884 -0.005051 -0.060421
v 0.000000 -0.005051 -0.069769
v 0.000000 -0.005051 0.069769
v -0.034884 -0.005051 0.060421
v -0.060421 -0.005051 0.034884
v -0.069769 -0.005051 -0.000000
v -0.060421 -0.005051 -0.034884
v -0.034884 -0.005051 -0.060421
vn -0.0000 -0.0000 -1.0000
vn 0.5000 -0.0000 -0.8660
vn 0.8660 -0.0000 -0.5000
vn 1.0000 -0.0000 -0.0000
vn 0.8660 -0.0000 0.5000
vn 0.5000 -0.0000 0.8660
vn -0.0000 -0.0000 1.0000
vn -0.5000 -0.0000 0.8660
vn -0.8660 -0.0000 0.5000
vn -1.0000 -0.0000 -0.0000
vn -0.8660 -0.0000 -0.5000
vn -0.0000 1.0000 -0.0000
vn -0.5000 -0.0000 -0.8660
vn -0.0029 1.0000 0.0017
vn -0.0034 1.0000 -0.0000
vn -0.0017 1.0000 -0.0029
vn -0.0029 1.0000 -0.0017
vn -0.0070 1.0000 -0.0041
vn -0.0041 1.0000 -0.0070
vn 0.0029 1.0000 0.0017
vn 0.0017 1.0000 0.0029
vn 0.0029 1.0000 -0.0017
vn 0.0034 1.0000 -0.0000
vn -0.0017 1.0000 0.0029
vn -0.0000 1.0000 0.0034
vn -0.0000 1.0000 0.0081
vn -0.0041 1.0000 0.0070
vn 0.0017 1.0000 -0.0029
vn -0.0000 1.0000 -0.0034
vn -0.0000 1.0000 -0.0081
vn 0.0041 1.0000 -0.0070
vn 0.0041 1.0000 0.0070
vn 0.0070 1.0000 0.0041
vn 0.0081 1.0000 -0.0000
vn -0.0070 1.0000 0.0041
vn -0.0081 1.0000 -0.0000
vn 0.0070 1.0000 -0.0041
vn -0.0000 -1.0000 -0.0000
vn -0.0034 -1.0000 -0.0000
vn -0.0029 -1.0000 0.0017
vn -0.0017 -1.0000 -0.0029
vn -0.0041 -1.0000 -0.0070
vn -0.0070 -1.0000 -0.0041
vn -0.0029 -1.0000 -0.0017
vn 0.0017 -1.0000 0.0029
vn 0.0029 -1.0000 0.0017
vn 0.0034 -1.0000 -0.0000
vn 0.0029 -1.0000 -0.0017
vn -0.0017 -1.0000 0.0029
vn -0.0041 -1.0000 0.0070
vn -0.0000 -1.0000 0.0081
vn -0.0000 -1.0000 0.0034
vn 0.0017 -1.0000 -0.0029
vn 0.0041 -1.0000 -0.0070
vn -0.0000 -1.0000 -0.0081
vn -0.0000 -1.0000 -0.0034
vn 0.0041 -1.0000 0.0070
vn 0.0070 -1.0000 0.0041
vn 0.0081 -1.0000 -0.0000
vn -0.0081 -1.0000 -0.0000
vn -0.0070 -1.0000 0.0041
vn 0.0070 -1.0000 -0.0041
vn -0.2588 -0.0000 -0.9659
vn -0.7071 -0.0000 -0.7071
vn -0.9659 -0.0000 -0.2588
vn -0.9659 -0.0000 0.2588
vn -0.7071 -0.0000 0.7071
vn -0.2588 -0.0000 0.9659
vn 0.2588 -0.0000 0.9659
vn 0.7071 -0.0000 0.7071
vn 0.9659 -0.0000 0.2588
vn 0.9659 -0.0000 -0.2588
vn 0.7071 -0.0000 -0.7071
vn 0.2588 -0.0000 -0.9659
vt 1.000000 1.000000
vt 0.250000 0.490000
vt 0.000000 1.000000
vt 0.916667 1.000000
vt 0.370000 0.457846
vt 0.833333 1.000000
vt 0.457846 0.370000
vt 0.750000 1.000000
vt 0.490000 0.250000
vt 0.666667 1.000000
vt 0.457846 0.130000
vt 0.583333 1.000000
vt 0.370000 0.042154
vt 0.500000 1.000000
vt 0.250000 0.010000
vt 0.416667 1.000000
vt 0.130000 0.042154
vt 0.333333 1.000000
vt 0.042154 0.130000
vt 0.250000 1.000000
vt 0.010000 0.250000
vt 0.042154 0.370000
vt 0.166667 1.000000
vt 0.130000 0.457846
vt 0.083333 1.000000
vt 1.000000 0.833333
vt 0.000000 0.833333
vt 0.916667 0.833333
vt 0.833333 0.833333
vt 0.750000 0.833333
vt 0.666667 0.833333
vt 0.583333 0.833333
vt 0.500000 0.833333
vt 0.416667 0.833333
vt 0.333333 0.833333
vt 0.250000 0.833333
vt 0.166667 0.833333
vt 0.083333 0.833333
vt 0.541666 1.000000
vt 0.583333 1.000000
vt 0.625000 1.000000
vt 0.666667 1.000000
vt -0.000000 1.000000
vt 1.000000 1.000000
vt 0.958333 1.000000
vt 0.916667 1.000000
vt 0.875000 1.000000
vt 0.833333 1.000000
vt 0.791667 1.000000
vt 0.750000 1.000000
vt 0.708333 1.000000
vt 0.666667 1.000000
vt 0.625000 1.000000
vt 0.583333 1.000000
vt 0.541666 1.000000
vt 0.500000 1.000000
vt 0.458333 1.000000
vt 0.416666 1.000000
vt 0.375000 1.000000
vt 0.333333 1.000000
vt 0.291667 1.000000
vt 0.250000 1.000000
vt 0.208333 1.000000
vt 0.166666 1.000000
vt 0.125000 1.000000
vt 0.083333 1.000000
vt 0.041666 1.000000
vt 0.708333 1.000000
vt 0.750000 1.000000
vt 0.791667 1.000000
vt 0.833333 1.000000
vt 0.875000 1.000000
vt 0.916667 1.000000
vt 0.958333 1.000000
vt -0.000000 1.000000
vt 1.000000 1.000000
vt 0.500000 1.000000
vt 0.458333 1.000000
vt 0.416666 1.000000
vt 0.375000 1.000000
vt 0.333333 1.000000
vt 0.291667 1.000000
vt 0.250000 1.000000
vt 0.208333 1.000000
vt 0.166666 1.000000
vt 0.125000 1.000000
vt 0.083333 1.000000
vt 0.041666 1.000000
vt 0.583333 1.000000
vt 0.666667 1.000000
vt 0.750000 1.000000
vt 0.833333 1.000000
vt 0.916667 1.000000
vt 1.000000 1.000000
vt -0.000000 1.000000
vt 0.500000 1.000000
vt 0.416666 1.000000
vt 0.333333 1.000000
vt 0.250000 1.000000
vt 0.166666 1.000000
vt 0.083333 1.000000
vt 1.000000 1.000000
vt 0.250000 0.490000
vt 0.000000 1.000000
vt 0.916667 1.000000
vt 0.370000 0.457846
vt 0.833333 1.000000
vt 0.457846 0.370000
vt 0.750000 1.000000
vt 0.490000 0.250000
vt 0.666667 1.000000
vt 0.457846 0.130000
vt 0.583333 1.000000
vt 0.370000 0.042154
vt 0.500000 1.000000
vt 0.250000 0.010000
vt 0.416667 1.000000
vt 0.130000 0.042154
vt 0.333333 1.000000
vt 0.042154 0.130000
vt 0.250000 1.000000
vt 0.010000 0.250000
vt 0.042154 0.370000
vt 0.166667 1.000000
vt 0.130000 0.457846
vt 0.083333 1.000000
vt 1.000000 0.833333
vt 0.000000 0.833333
vt 0.916667 0.833333
vt 0.833333 0.833333
vt 0.750000 0.833333
vt 0.666667 0.833333
vt 0.583333 0.833333
vt 0.500000 0.833333
vt 0.416667 0.833333
vt 0.333333 0.833333
vt 0.250000 0.833333
vt 0.166667 0.833333
vt 0.083333 0.833333
vt 0.541666 1.000000
vt 0.583333 1.000000
vt 0.625000 1.000000
vt 0.666667 1.000000
vt -0.000000 1.000000
vt 1.000000 1.000000
vt 0.958333 1.000000
vt 0.916667 1.000000
vt 0.875000 1.000000
vt 0.833333 1.000000
vt 0.791667 1.000000
vt 0.750000 1.000000
vt 0.708333 1.000000
vt 0.666667 1.000000
vt 0.625000 1.000000
vt 0.583333 1.000000
vt 0.541666 1.000000
vt 0.500000 1.000000
vt 0.458333 1.000000
vt 0.416666 1.000000
vt 0.375000 1.000000
vt 0.333333 1.000000
vt 0.291667 1.000000
vt 0.250000 1.000000
vt 0.208333 1.000000
vt 0.166666 1.000000
vt 0.125000 1.000000
vt 0.083333 1.000000
vt 0.041666 1.000000
vt 0.708333 1.000000
vt 0.750000 1.000000
vt 0.791667 1.000000
vt 0.833333 1.000000
vt 0.875000 1.000000
vt 0.916667 1.000000
vt 0.958333 1.000000
vt -0.000000 1.000000
vt 1.000000 1.000000
vt 0.500000 1.000000
vt 0.458333 1.000000
vt 0.416666 1.000000
vt 0.375000 1.000000
vt 0.333333 1.000000
vt 0.291667 1.000000
vt 0.250000 1.000000
vt 0.208333 1.000000
vt 0.166666 1.000000
vt 0.125000 1.000000
vt 0.083333 1.000000
vt 0.041666 1.000000
vt 0.583333 1.000000
vt 0.666667 1.000000
vt 0.750000 1.000000
vt 0.833333 1.000000
vt 0.916667 1.000000
vt 1.000000 1.000000
vt -0.000000 1.000000
vt 0.500000 1.000000
vt 0.416666 1.000000
vt 0.333333 1.000000
vt 0.250000 1.000000
vt 0.166666 1.000000
vt 0.083333 1.000000
s 1
usemtl White
f 13/26/1 1/1/1 2/4/2 14/28/2
f 14/28/2 2/4/2 3/6/3 15/29/3
f 15/29/3 3/6/3 4/8/4 16/30/4
f 16/30/4 4/8/4 5/10/5 17/31/5
f 17/31/5 5/10/5 6/12/6 18/32/6
f 18/32/6 6/12/6 7/14/7 19/33/7
f 19/33/7 7/14/7 8/16/8 20/34/8
f 20/34/8 8/16/8 9/18/9 21/35/9
f 21/35/9 9/18/9 10/20/10 22/36/10
f 22/36/10 10/20/10 11/23/11 23/37/11
f 2/5/12 1/2/12 12/24/12 11/22/12 10/21/12 9/19/12 8/17/12 7/15/12 6/13/12 5/11/12 4/9/12 3/7/12
f 23/37/11 11/23/11 12/25/13 24/38/13
f 24/38/13 12/25/13 1/3/1 13/27/1
f 44/59/12 43/58/12 63/79/12 64/80/12
f 34/49/12 33/48/12 56/71/12 55/70/12
f 40/55/12 39/54/12 26/40/12 25/39/12
f 38/53/12 37/52/12 28/42/12 27/41/12
f 50/65/12 49/64/12 69/85/12 70/86/12
f 36/51/12 35/50/12 54/69/12 53/68/12
f 52/67/12 51/66/12 71/87/12 72/88/12
f 42/57/12 41/56/12 61/77/12 62/78/12
f 46/61/12 45/60/12 65/81/12 66/82/12
f 32/47/12 31/46/12 58/73/12 57/72/12
f 48/63/12 47/62/12 67/83/12 68/84/12
f 30/45/12 29/44/12 60/76/12 59/74/12
f 67/83/12 66/82/12 65/81/12 81/98/14 82/99/15
f 84/101/16 83/100/17 23/37/18 24/38/19
f 71/87/12 70/86/12 69/85/12 83/100/17 84/101/16
f 26/40/12 27/41/12 28/42/12 74/90/20 73/89/21
f 54/69/12 55/70/12 56/71/12 76/92/22 75/91/23
f 65/81/12 64/80/12 63/79/12 80/97/24 81/98/14
f 28/42/12 53/68/12 54/69/12 75/91/23 74/90/20
f 80/97/24 79/96/25 19/33/26 20/34/27
f 77/93/28 78/94/29 13/26/30 14/28/31
f 79/96/25 73/89/21 18/32/32 19/33/26
f 63/79/12 62/78/12 61/77/12 79/96/25 80/97/24
f 73/89/21 74/90/20 17/31/33 18/32/32
f 74/90/20 75/91/23 16/30/34 17/31/33
f 72/88/12 71/87/12 84/101/16 78/95/29 60/75/12
f 82/99/15 81/98/14 21/35/35 22/36/36
f 76/92/22 77/93/28 14/28/31 15/29/37
f 59/74/12 60/76/12 78/94/29 77/93/28 58/73/12
f 78/95/29 84/101/16 24/38/19 13/27/30
f 83/100/17 82/99/15 22/36/36 23/37/18
f 81/98/14 80/97/24 20/34/27 21/35/35
f 75/91/23 76/92/22 15/29/37 16/30/34
f 97/127/1 98/129/2 86/105/2 85/102/1
f 98/129/2 99/130/3 87/107/3 86/105/2
f 99/130/3 100/131/4 88/109/4 87/107/3
f 100/131/4 101/132/5 89/111/5 88/109/4
f 101/132/5 102/133/6 90/113/6 89/111/5
f 102/133/6 103/134/7 91/115/7 90/113/6
f 103/134/7 104/135/8 92/117/8 91/115/7
f 104/135/8 105/136/9 93/119/9 92/117/8
f 105/136/9 106/137/10 94/121/10 93/119/9
f 106/137/10 107/138/11 95/124/11 94/121/10
f 86/106/38 87/108/38 88/110/38 89/112/38 90/114/38 91/116/38 92/118/38 93/120/38 94/122/38 95/123/38 96/125/38 85/103/38
f 107/138/11 108/139/13 96/126/13 95/124/11
f 108/139/13 97/128/1 85/104/1 96/126/13
f 128/160/38 148/181/38 147/180/38 127/159/38
f 118/150/38 139/171/38 140/172/38 117/149/38
f 124/156/38 109/140/38 110/141/38 123/155/38
f 122/154/38 111/142/38 112/143/38 121/153/38
f 134/166/38 154/187/38 153/186/38 133/165/38
f 120/152/38 137/169/38 138/170/38 119/151/38
f 136/168/38 156/189/38 155/188/38 135/167/38
f 126/158/38 146/179/38 145/178/38 125/157/38
f 130/162/38 150/183/38 149/182/38 129/161/38
f 116/148/38 141/173/38 142/174/38 115/147/38
f 132/164/38 152/185/38 151/184/38 131/163/38
f 114/146/38 143/175/38 144/177/38 113/145/38
f 151/184/38 166/200/39 165/199/40 149/182/38 150/183/38
f 168/202/41 108/139/42 107/138/43 167/201/44
f 155/188/38 168/202/41 167/201/44 153/186/38 154/187/38
f 110/141/38 157/190/45 158/191/46 112/143/38 111/142/38
f 138/170/38 159/192/47 160/193/48 140/172/38 139/171/38
f 164/198/49 104/135/50 103/134/51 163/197/52
f 161/194/53 98/129/54 97/127/55 162/195/56
f 163/197/52 103/134/51 102/133/57 157/190/45
f 147/180/38 164/198/49 163/197/52 145/178/38 146/179/38
f 157/190/45 102/133/57 101/132/58 158/191/46
f 158/191/46 101/132/58 100/131/59 159/192/47
f 166/200/39 106/137/60 105/136/61 165/199/40
f 160/193/48 99/130/62 98/129/54 161/194/53
f 143/175/38 142/174/38 161/194/53 162/195/56 144/177/38
f 162/196/56 97/128/55 108/139/42 168/202/41
f 167/201/44 107/138/43 106/137/60 166/200/39
f 165/199/40 105/136/61 104/135/50 164/198/49
f 159/192/47 100/131/59 99/130/62 160/193/48
f 131/163/10 130/162/66 46/61/66 47/62/10
f 130/162/66 129/161/9 45/60/9 46/61/66
f 129/161/9 128/160/67 44/59/67 45/60/9
f 128/160/67 127/159/8 43/58/8 44/59/67
f 127/159/8 126/158/68 42/57/68 43/58/8
f 126/158/68 125/157/7 41/56/7 42/57/68
f 125/157/7 124/156/69 40/55/69 41/56/7
f 124/156/69 123/155/6 39/54/6 40/55/69
f 123/155/6 122/154/70 38/53/70 39/54/6
f 122/154/70 121/153/5 37/52/5 38/53/70
f 121/153/5 120/152/71 36/51/71 37/52/5
f 120/152/71 119/151/4 35/50/4 36/51/71
usemtl Black
f 33/48/12 32/47/12 57/72/12 56/71/12
f 41/56/12 40/55/12 25/39/12 61/77/12
f 39/54/12 38/53/12 27/41/12 26/40/12
f 47/62/12 46/61/12 66/82/12 67/83/12
f 49/64/12 48/63/12 68/84/12 69/85/12
f 51/66/12 50/65/12 70/86/12 71/87/12
f 29/43/12 52/67/12 72/88/12 60/75/12
f 43/58/12 42/57/12 62/78/12 63/79/12
f 37/52/12 36/51/12 53/68/12 28/42/12
f 31/46/12 30/45/12 59/74/12 58/73/12
f 45/60/12 44/59/12 64/80/12 65/81/12
f 35/50/12 34/49/12 55/70/12 54/69/12
f 68/84/12 67/83/12 82/99/15 83/100/17 69/85/12
f 57/72/12 58/73/12 77/93/28 76/92/22 56/71/12
f 25/39/12 26/40/12 73/89/21 79/96/25 61/77/12
f 117/149/38 140/172/38 141/173/38 116/148/38
f 125/157/38 145/178/38 109/140/38 124/156/38
f 123/155/38 110/141/38 111/142/38 122/154/38
f 131/163/38 151/184/38 150/183/38 130/162/38
f 133/165/38 153/186/38 152/185/38 132/164/38
f 135/167/38 155/188/38 154/187/38 134/166/38
f 113/144/38 144/176/38 156/189/38 136/168/38
f 127/159/38 147/180/38 146/179/38 126/158/38
f 121/153/38 112/143/38 137/169/38 120/152/38
f 115/147/38 142/174/38 143/175/38 114/146/38
f 129/161/38 149/182/38 148/181/38 128/160/38
f 119/151/38 138/170/38 139/171/38 118/150/38
f 152/185/38 153/186/38 167/201/44 166/200/39 151/184/38
f 149/182/38 165/199/40 164/198/49 147/180/38 148/181/38
f 112/143/38 158/191/46 159/192/47 138/170/38 137/169/38
f 141/173/38 140/172/38 160/193/48 161/194/53 142/174/38
f 156/189/38 144/176/38 162/196/56 168/202/41 155/188/38
f 109/140/38 145/178/38 163/197/52 157/190/45 110/141/38
f 113/144/1 136/168/63 52/67/63 29/43/1
f 136/168/63 135/167/13 51/66/13 52/67/63
f 135/167/13 134/166/64 50/65/64 51/66/13
f 134/166/64 133/165/11 49/64/11 50/65/64
f 133/165/11 132/164/65 48/63/65 49/64/11
f 132/164/65 131/163/10 47/62/10 48/63/65
f 119/151/4 118/150/72 34/49/72 35/50/4
f 118/150/72 117/149/3 33/48/3 34/49/72
f 117/149/3 116/148/73 32/47/73 33/48/3
f 116/148/73 115/147/2 31/46/2 32/47/73
f 115/147/2 114/146/74 30/45/74 31/46/2
f 114/146/74 113/145/1 29/44/1 30/45/74
