# Blender 3.4.1
# www.blender.org
mtllib block_shaft_1.mtl
o Cylinder
v 0.000000 -0.050000 -0.050000
v 0.000000 0.050000 -0.050000
v 0.025000 -0.050000 -0.043301
v 0.025000 0.050000 -0.043301
v 0.043301 -0.050000 -0.025000
v 0.043301 0.050000 -0.025000
v 0.050000 -0.050000 0.000000
v 0.050000 0.050000 0.000000
v 0.043301 -0.050000 0.025000
v 0.043301 0.050000 0.025000
v 0.025000 -0.050000 0.043301
v 0.025000 0.050000 0.043301
v 0.000000 -0.050000 0.050000
v 0.000000 0.050000 0.050000
v -0.025000 -0.050000 0.043301
v -0.025000 0.050000 0.043301
v -0.043301 -0.050000 0.025000
v -0.043301 0.050000 0.025000
v -0.050000 -0.050000 0.000000
v -0.050000 0.050000 0.000000
v -0.043301 -0.050000 -0.025000
v -0.043301 0.050000 -0.025000
v -0.025000 -0.050000 -0.043301
v -0.025000 0.050000 -0.043301
vn -0.0000 -0.0000 -1.0000
vn 0.5000 -0.0000 -0.8660
vn 0.8660 -0.0000 -0.5000
vn 1.0000 -0.0000 -0.0000
vn 0.8660 -0.0000 0.5000
vn 0.5000 -0.0000 0.8660
vn -0.0000 -0.0000 1.0000
vn -0.5000 -0.0000 0.8660
vn -0.8660 -0.0000 0.5000
vn -1.0000 -0.0000 -0.0000
vn -0.8660 -0.0000 -0.5000
vn -0.0000 1.0000 -0.0000
vn -0.5000 -0.0000 -0.8660
vn -0.0000 -1.0000 -0.0000
vt 1.000000 0.500000
vt 0.000000 0.500000
vt 0.750000 0.490000
vt 1.000000 1.000000
vt 0.250000 0.490000
vt 0.000000 1.000000
vt 0.916667 0.500000
vt 0.870000 0.457846
vt 0.916667 1.000000
vt 0.370000 0.457846
vt 0.833333 0.500000
vt 0.957846 0.370000
vt 0.833333 1.000000
vt 0.457846 0.370000
vt 0.750000 0.500000
vt 0.990000 0.250000
vt 0.750000 1.000000
vt 0.490000 0.250000
vt 0.666667 0.500000
vt 0.957846 0.130000
vt 0.666667 1.000000
vt 0.457846 0.130000
vt 0.583333 0.500000
vt 0.870000 0.042154
vt 0.583333 1.000000
vt 0.370000 0.042154
vt 0.500000 0.500000
vt 0.750000 0.010000
vt 0.500000 1.000000
vt 0.250000 0.010000
vt 0.416667 0.500000
vt 0.630000 0.042154
vt 0.416667 1.000000
vt 0.130000 0.042154
vt 0.333333 0.500000
vt 0.542154 0.130000
vt 0.333333 1.000000
vt 0.042154 0.130000
vt 0.250000 0.500000
vt 0.510000 0.250000
vt 0.250000 1.000000
vt 0.010000 0.250000
vt 0.166667 0.500000
vt 0.542154 0.370000
vt 0.042154 0.370000
vt 0.166667 1.000000
vt 0.083333 0.500000
vt 0.630000 0.457846
vt 0.130000 0.457846
vt 0.083333 1.000000
s 1
f 1/1/1 2/4/1 4/9/2 3/7/2
f 3/7/2 4/9/2 6/13/3 5/11/3
f 5/11/3 6/13/3 8/17/4 7/15/4
f 7/15/4 8/17/4 10/21/5 9/19/5
f 9/19/5 10/21/5 12/25/6 11/23/6
f 11/23/6 12/25/6 14/29/7 13/27/7
f 13/27/7 14/29/7 16/33/8 15/31/8
f 15/31/8 16/33/8 18/37/9 17/35/9
f 17/35/9 18/37/9 20/41/10 19/39/10
f 19/39/10 20/41/10 22/46/11 21/43/11
f 4/10/12 2/5/12 24/49/12 22/45/12 20/42/12 18/38/12 16/34/12 14/30/12 12/26/12 10/22/12 8/18/12 6/14/12
f 21/43/11 22/46/11 24/50/13 23/47/13
f 23/47/13 24/50/13 2/6/1 1/2/1
f 1/3/14 3/8/14 5/12/14 7/16/14 9/20/14 11/24/14 13/28/14 15/32/14 17/36/14 19/40/14 21/44/14 23/48/14
