# Blender 3.4.1
# www.blender.org
mtllib block_spur_1_1.mtl
o Cylinder
v 0.000000 -0.050000 -0.050000
v 0.000000 0.050000 -0.050000
v 0.025000 -0.050000 -0.043301
v 0.025000 0.050000 -0.043301
v 0.043301 -0.050000 -0.025000
v 0.043301 0.050000 -0.025000
v 0.050000 -0.050000 0.000000
v 0.050000 0.050000 0.000000
v 0.043301 -0.050000 0.025000
v 0.043301 0.050000 0.025000
v 0.025000 -0.050000 0.043301
v 0.025000 0.050000 0.043301
v 0.000000 -0.050000 0.050000
v 0.000000 0.050000 0.050000
v -0.025000 -0.050000 0.043301
v -0.025000 0.050000 0.043301
v -0.043301 -0.050000 0.025000
v -0.043301 0.050000 0.025000
v -0.050000 -0.050000 0.000000
v -0.050000 0.050000 0.000000
v -0.043301 -0.050000 -0.025000
v -0.043301 0.050000 -0.025000
v -0.025000 -0.050000 -0.043301
v -0.025000 0.050000 -0.043301
v 0.000000 -0.028447 -0.050000
v 0.000000 0.028447 -0.050000
v 0.025000 0.028447 -0.043301
v 0.025000 -0.028447 -0.043301
v 0.043301 0.028447 -0.025000
v 0.043301 -0.028447 -0.025000
v 0.050000 0.028447 0.000000
v 0.050000 -0.028447 0.000000
v 0.043301 0.028447 0.025000
v 0.043301 -0.028447 0.025000
v 0.025000 0.028447 0.043301
v 0.025000 -0.028447 0.043301
v 0.000000 0.028447 0.050000
v 0.000000 -0.028447 0.050000
v -0.025000 0.028447 0.043301
v -0.025000 -0.028447 0.043301
v -0.043301 0.028447 0.025000
v -0.043301 -0.028447 0.025000
v -0.050000 0.028447 0.000000
v -0.050000 -0.028447 0.000000
v -0.043301 0.028447 -0.025000
v -0.043301 -0.028447 -0.025000
v -0.025000 0.028447 -0.043301
v -0.025000 -0.028447 -0.043301
v 0.000000 -0.021414 -0.100000
v 0.000000 -0.028447 -0.092719
v 0.000000 0.028447 -0.092719
v 0.000000 0.021414 -0.100000
v 0.050000 0.021414 -0.086603
v 0.046359 0.028447 -0.080297
v 0.046359 -0.028447 -0.080297
v 0.050000 -0.021414 -0.086603
v 0.086603 0.021414 -0.050000
v 0.080297 0.028447 -0.046359
v 0.080297 -0.028447 -0.046359
v 0.086603 -0.021414 -0.050000
v 0.100000 0.021414 0.000000
v 0.092719 0.028447 0.000000
v 0.092719 -0.028447 0.000000
v 0.100000 -0.021414 0.000000
v 0.086603 0.021414 0.050000
v 0.080297 0.028447 0.046359
v 0.080297 -0.028447 0.046359
v 0.086603 -0.021414 0.050000
v 0.050000 0.021414 0.086603
v 0.046359 0.028447 0.080297
v 0.046359 -0.028447 0.080297
v 0.050000 -0.021414 0.086603
v 0.000000 0.021414 0.100000
v 0.000000 0.028447 0.092719
v 0.000000 -0.028447 0.092719
v 0.000000 -0.021414 0.100000
v -0.050000 0.021414 0.086603
v -0.046359 0.028447 0.080297
v -0.046359 -0.028447 0.080297
v -0.050000 -0.021414 0.086603
v -0.086603 0.021414 0.050000
v -0.080297 0.028447 0.046359
v -0.080297 -0.028447 0.046359
v -0.086603 -0.021414 0.050000
v -0.100000 0.021414 0.000000
v -0.092719 0.028447 0.000000
v -0.092719 -0.028447 0.000000
v -0.100000 -0.021414 0.000000
v -0.086603 0.021414 -0.050000
v -0.080297 0.028447 -0.046359
v -0.080297 -0.028447 -0.046359
v -0.086603 -0.021414 -0.050000
v -0.050000 0.021414 -0.086603
v -0.046359 0.028447 -0.080297
v -0.046359 -0.028447 -0.080297
v -0.050000 -0.021414 -0.086603
vn -0.0000 -0.0000 -1.0000
vn 0.5000 -0.0000 -0.8660
vn 0.8660 -0.0000 -0.5000
vn 1.0000 -0.0000 -0.0000
vn 0.8660 -0.0000 0.5000
vn 0.5000 -0.0000 0.8660
vn -0.0000 -0.0000 1.0000
vn -0.5000 -0.0000 0.8660
vn -0.8660 -0.0000 0.5000
vn -1.0000 -0.0000 -0.0000
vn -0.8660 -0.0000 -0.5000
vn -0.0000 1.0000 -0.0000
vn -0.5000 -0.0000 -0.8660
vn -0.0000 -1.0000 -0.0000
vn -0.3474 -0.7193 -0.6017
vn -0.0000 -0.7193 -0.6947
vn -0.3474 0.7193 -0.6017
vn -0.0000 0.7193 -0.6947
vn -0.6017 -0.7193 -0.3474
vn -0.6017 0.7193 -0.3474
vn -0.6947 -0.7193 -0.0000
vn -0.6947 0.7193 -0.0000
vn -0.6017 -0.7193 0.3474
vn -0.6017 0.7193 0.3474
vn -0.3474 -0.7193 0.6017
vn -0.3474 0.7193 0.6017
vn -0.0000 -0.7193 0.6947
vn -0.0000 0.7193 0.6947
vn 0.3474 -0.7193 0.6017
vn 0.3474 0.7193 0.6017
vn 0.6017 -0.7193 0.3474
vn 0.6017 0.7193 0.3474
vn 0.6947 -0.7193 -0.0000
vn 0.6947 0.7193 -0.0000
vn 0.6017 -0.7193 -0.3474
vn 0.6017 0.7193 -0.3474
vn 0.3474 -0.7193 -0.6017
vn 0.3474 0.7193 -0.6017
vt 0.750000 0.490000
vt 0.000000 0.500000
vt 1.000000 0.500000
vt 1.000000 1.000000
vt 0.250000 0.490000
vt 0.000000 1.000000
vt 0.870000 0.457846
vt 0.916667 0.500000
vt 0.916667 1.000000
vt 0.370000 0.457846
vt 0.957846 0.370000
vt 0.833333 0.500000
vt 0.833333 1.000000
vt 0.457846 0.370000
vt 0.990000 0.250000
vt 0.750000 0.500000
vt 0.750000 1.000000
vt 0.490000 0.250000
vt 0.957846 0.130000
vt 0.666667 0.500000
vt 0.666667 1.000000
vt 0.457846 0.130000
vt 0.870000 0.042154
vt 0.583333 0.500000
vt 0.583333 1.000000
vt 0.370000 0.042154
vt 0.750000 0.010000
vt 0.500000 0.500000
vt 0.500000 1.000000
vt 0.250000 0.010000
vt 0.630000 0.042154
vt 0.416667 0.500000
vt 0.416667 1.000000
vt 0.130000 0.042154
vt 0.542154 0.130000
vt 0.333333 0.500000
vt 0.333333 1.000000
vt 0.042154 0.130000
vt 0.510000 0.250000
vt 0.250000 0.500000
vt 0.250000 1.000000
vt 0.010000 0.250000
vt 0.542154 0.370000
vt 0.166667 0.500000
vt 0.042154 0.370000
vt 0.166667 1.000000
vt 0.630000 0.457846
vt 0.083333 0.500000
vt 0.130000 0.457846
vt 0.083333 1.000000
vt 0.000000 0.666667
vt 1.000000 0.666667
vt 1.000000 0.833333
vt 0.000000 0.833333
vt 0.916667 0.833333
vt 0.916667 0.666667
vt 0.833333 0.833333
vt 0.833333 0.666667
vt 0.750000 0.833333
vt 0.750000 0.666667
vt 0.666667 0.833333
vt 0.666667 0.666667
vt 0.583333 0.833333
vt 0.583333 0.666667
vt 0.500000 0.833333
vt 0.500000 0.666667
vt 0.416667 0.833333
vt 0.416667 0.666667
vt 0.333333 0.833333
vt 0.333333 0.666667
vt 0.250000 0.833333
vt 0.250000 0.666667
vt 0.166667 0.833333
vt 0.166667 0.666667
vt 0.083333 0.833333
vt 0.083333 0.666667
vt 0.000000 0.687270
vt 1.000000 0.687270
vt 0.000000 0.666667
vt 1.000000 0.666667
vt 0.000000 0.833333
vt 1.000000 0.833333
vt 0.000000 0.812730
vt 1.000000 0.812730
vt 0.916667 0.812730
vt 0.916667 0.833333
vt 0.916667 0.666667
vt 0.916667 0.687270
vt 0.833333 0.812730
vt 0.833333 0.833333
vt 0.833333 0.666667
vt 0.833333 0.687270
vt 0.750000 0.812730
vt 0.750000 0.833333
vt 0.750000 0.666667
vt 0.750000 0.687270
vt 0.666667 0.812730
vt 0.666667 0.833333
vt 0.666667 0.666667
vt 0.666667 0.687270
vt 0.583333 0.812730
vt 0.583333 0.833333
vt 0.583333 0.666667
vt 0.583333 0.687270
vt 0.500000 0.812730
vt 0.500000 0.833333
vt 0.500000 0.666667
vt 0.500000 0.687270
vt 0.416667 0.812730
vt 0.416667 0.833333
vt 0.416667 0.666667
vt 0.416667 0.687270
vt 0.333333 0.812730
vt 0.333333 0.833333
vt 0.333333 0.666667
vt 0.333333 0.687270
vt 0.250000 0.812730
vt 0.250000 0.833333
vt 0.250000 0.666667
vt 0.250000 0.687270
vt 0.166667 0.812730
vt 0.166667 0.833333
vt 0.166667 0.666667
vt 0.166667 0.687270
vt 0.083333 0.812730
vt 0.083333 0.833333
vt 0.083333 0.666667
vt 0.083333 0.687270
s 1
usemtl White
f 26/53/1 2/4/1 4/9/2 27/55/2
f 27/55/2 4/9/2 6/13/3 29/57/3
f 29/57/3 6/13/3 8/17/4 31/59/4
f 31/59/4 8/17/4 10/21/5 33/61/5
f 33/61/5 10/21/5 12/25/6 35/63/6
f 35/63/6 12/25/6 14/29/7 37/65/7
f 37/65/7 14/29/7 16/33/8 39/67/8
f 39/67/8 16/33/8 18/37/9 41/69/9
f 41/69/9 18/37/9 20/41/10 43/71/10
f 43/71/10 20/41/10 22/46/11 45/73/11
f 4/10/12 2/5/12 24/49/12 22/45/12 20/42/12 18/38/12 16/34/12 14/30/12 12/26/12 10/22/12 8/18/12 6/14/12
f 45/73/11 22/46/11 24/50/13 47/75/13
f 47/75/13 24/50/13 2/6/1 26/54/1
f 1/1/14 3/7/14 5/11/14 7/15/14 9/19/14 11/23/14 13/27/14 15/31/14 17/35/14 19/39/14 21/43/14 23/47/14
f 23/48/13 48/76/13 25/51/1 1/2/1
f 26/53/12 27/55/12 54/86/12 51/82/12
f 21/44/11 46/74/11 48/76/13 23/48/13
f 27/55/12 29/57/12 58/90/12 54/86/12
f 19/40/10 44/72/10 46/74/11 21/44/11
f 41/69/12 43/71/12 86/118/12 82/114/12
f 17/36/9 42/70/9 44/72/10 19/40/10
f 36/64/14 34/62/14 67/99/14 71/103/14
f 15/32/8 40/68/8 42/70/9 17/36/9
f 47/75/12 26/54/12 51/81/12 94/126/12
f 13/28/7 38/66/7 40/68/8 15/32/8
f 25/51/14 48/76/14 95/127/14 50/79/14
f 11/24/6 36/64/6 38/66/7 13/28/7
f 84/116/9 81/113/9 85/117/10 88/120/10
f 9/20/5 34/62/5 36/64/6 11/24/6
f 35/63/12 37/65/12 74/106/12 70/102/12
f 7/16/4 32/60/4 34/62/5 9/20/5
f 56/88/2 53/85/2 57/89/3 60/92/3
f 5/12/3 30/58/3 32/60/4 7/16/4
f 43/71/12 45/73/12 90/122/12 86/118/12
f 3/8/2 28/56/2 30/58/3 5/12/3
f 72/104/6 69/101/6 73/105/7 76/108/7
f 1/3/1 25/52/1 28/56/2 3/8/2
f 29/57/12 31/59/12 62/94/12 58/90/12
f 28/56/14 25/52/14 50/80/14 55/87/14
f 45/73/12 47/75/12 94/126/12 90/122/12
f 46/74/14 44/72/14 87/119/14 91/123/14
f 44/72/14 42/70/14 83/115/14 87/119/14
f 39/67/12 41/69/12 82/114/12 78/110/12
f 40/68/14 38/66/14 75/107/14 79/111/14
f 38/66/14 36/64/14 71/103/14 75/107/14
f 33/61/12 35/63/12 70/102/12 66/98/12
f 31/59/12 33/61/12 66/98/12 62/94/12
f 32/60/14 30/58/14 59/91/14 63/95/14
f 30/58/14 28/56/14 55/87/14 59/91/14
f 96/128/13 93/125/13 52/83/1 49/77/1
f 68/100/5 65/97/5 69/101/6 72/104/6
f 42/70/14 40/68/14 79/111/14 83/115/14
f 34/62/14 32/60/14 63/95/14 67/99/14
f 80/112/8 77/109/8 81/113/9 84/116/9
f 48/76/14 46/74/14 91/123/14 95/127/14
f 76/108/7 73/105/7 77/109/8 80/112/8
f 92/124/11 89/121/11 93/125/13 96/128/13
f 60/92/3 57/89/3 61/93/4 64/96/4
f 37/65/12 39/67/12 78/110/12 74/106/12
f 88/120/10 85/117/10 89/121/11 92/124/11
f 96/128/15 49/77/16 50/79/16 95/127/15
f 94/126/17 51/81/18 52/83/18 93/125/17
f 92/124/19 96/128/15 95/127/15 91/123/19
f 90/122/20 94/126/17 93/125/17 89/121/20
f 88/120/21 92/124/19 91/123/19 87/119/21
f 86/118/22 90/122/20 89/121/20 85/117/22
f 84/116/23 88/120/21 87/119/21 83/115/23
f 82/114/24 86/118/22 85/117/22 81/113/24
f 80/112/25 84/116/23 83/115/23 79/111/25
f 78/110/26 82/114/24 81/113/24 77/109/26
f 76/108/27 80/112/25 79/111/25 75/107/27
f 74/106/28 78/110/26 77/109/26 73/105/28
f 72/104/29 76/108/27 75/107/27 71/103/29
f 70/102/30 74/106/28 73/105/28 69/101/30
f 68/100/31 72/104/29 71/103/29 67/99/31
f 66/98/32 70/102/30 69/101/30 65/97/32
f 60/92/35 64/96/33 63/95/33 59/91/35
f 58/90/36 62/94/34 61/93/34 57/89/36
f 56/88/37 60/92/35 59/91/35 55/87/37
f 54/86/38 58/90/36 57/89/36 53/85/38
f 49/78/16 56/88/37 55/87/37 50/80/16
f 51/82/18 54/86/38 53/85/38 52/84/18
f 49/78/1 52/84/1 53/85/2 56/88/2
usemtl Black
f 64/96/4 61/93/4 65/97/5 68/100/5
f 64/96/33 68/100/31 67/99/31 63/95/33
f 62/94/34 66/98/32 65/97/32 61/93/34
