# Blender 3.4.1
# www.blender.org
mtllib rocker_switch.mtl
o Plane
v 0.010184 0.029075 -0.027656
v 0.010184 0.029075 0.027656
v 0.010184 -0.029075 -0.027656
v 0.010184 -0.029075 0.027656
v 0.004659 0.029075 0.000000
v 0.004659 -0.029075 -0.000000
v -0.003632 -0.029075 -0.031428
v -0.003632 0.029075 -0.031428
v -0.003632 0.029075 0.000000
v -0.003632 0.029075 0.031428
v -0.003632 -0.029075 0.031428
v -0.003632 -0.029075 -0.000000
v 0.006302 -0.029075 -0.015714
v 0.006302 0.029075 -0.015714
v -0.003632 -0.029075 -0.015714
v -0.003632 0.029075 -0.015714
v 0.006302 0.029075 0.015714
v 0.006302 -0.029075 0.015714
v -0.003632 0.029075 0.015714
v -0.003632 -0.029075 0.015714
v 0.004150 -0.029075 0.029315
v 0.004150 0.029075 0.029315
v 0.004150 0.029075 -0.029315
v 0.004150 -0.029075 -0.029315
v 0.002934 -0.029075 -0.000000
v 0.002934 0.029075 0.000000
v 0.002934 0.029075 -0.015714
v 0.002934 -0.029075 -0.015714
v 0.002934 0.029075 0.015714
v 0.002934 -0.029075 0.015714
vn 0.9782 -0.0000 -0.2077
vn 0.9510 -0.0000 -0.3092
vn 0.9782 -0.0000 0.2077
vn 1.0000 -0.0000 -0.0000
vn -1.0000 -0.0000 -0.0000
vn 0.2636 -0.0000 0.9646
vn 0.2619 -0.0000 0.9651
vn 0.2636 -0.0000 -0.9646
vn 0.2619 -0.0000 -0.9651
vn -0.0000 -1.0000 -0.0000
vn -0.0000 1.0000 -0.0000
vn 0.9510 -0.0000 0.3092
vn 0.2652 -0.0000 -0.9642
vn 0.2652 -0.0000 0.9642
vt 0.000000 0.000000
vt 1.000000 0.000000
vt 0.000000 1.000000
vt 1.000000 1.000000
vt 0.500000 0.000000
vt 0.500000 1.000000
vt 0.000000 1.000000
vt 0.000000 0.000000
vt 0.500000 0.000000
vt 1.000000 0.000000
vt 1.000000 1.000000
vt 0.500000 1.000000
vt 0.250000 1.000000
vt 0.250000 0.000000
vt 0.250000 1.000000
vt 0.250000 0.000000
vt 0.750000 0.000000
vt 0.750000 1.000000
vt 0.750000 0.000000
vt 0.750000 1.000000
vt 0.998320 1.000000
vt 0.998320 0.000000
vt 0.001680 -0.000000
vt 0.001680 1.000000
vt 0.500000 1.000000
vt 0.500000 0.000000
vt 0.248508 0.000000
vt 0.248508 1.000000
vt 0.751492 0.000000
vt 0.751492 1.000000
s 1
usemtl Material
f 17/17/1 2/2/2 4/4/2 18/18/1
f 14/14/3 5/5/4 6/6/4 13/13/3
f 19/19/5 20/20/5 11/11/5 10/10/5
f 16/16/5 15/15/5 12/12/5 9/9/5
f 30/30/10 20/20/10 12/12/10 25/25/10
f 27/27/11 16/16/11 9/9/11 26/26/11
f 25/25/10 12/12/10 15/15/10 28/28/10
f 8/8/5 7/7/5 15/15/5 16/16/5
f 1/1/12 14/14/3 13/13/3 3/3/12
f 26/26/11 9/9/11 19/19/11 29/29/11
f 9/9/5 12/12/5 20/20/5 19/19/5
f 5/5/4 17/17/1 18/18/1 6/6/4
f 4/4/10 21/21/10 30/30/10 18/18/10
f 5/5/11 26/26/11 29/29/11 17/17/11
f 6/6/10 25/25/10 28/28/10 13/13/10
f 1/1/11 23/23/11 27/27/11 14/14/11
f 14/14/11 27/27/11 26/26/11 5/5/11
f 17/17/11 29/29/11 22/22/11 2/2/11
f 13/13/10 28/28/10 24/24/10 3/3/10
f 18/18/10 30/30/10 25/25/10 6/6/10
f 3/3/13 24/24/8 23/23/8 1/1/13
f 2/2/14 22/22/6 21/21/6 4/4/14
usemtl Material.002
f 22/22/6 10/10/7 11/11/7 21/21/6
f 29/29/11 19/19/11 10/10/11 22/22/11
f 21/21/10 11/11/10 20/20/10 30/30/10
usemtl Material.003
f 24/24/8 7/7/9 8/8/9 23/23/8
f 28/28/10 15/15/10 7/7/10 24/24/10
f 23/23/11 8/8/11 16/16/11 27/27/11
